<?xml version="1.0" encoding="utf-8"?>
<svg viewBox="0 0 500 500" xmlns="http://www.w3.org/2000/svg">
  <g transform="matrix(1, 0, 0, 1, 326.707153, 142.584381)">
    <rect fill="none" height="24" width="24"/>
  </g>
  <g transform="matrix(1, 0, 0, 1, 617.442749, 210.188126)">
    <g/>
    <g>
      <path d="M -319.044 45.819 C -316.909 43.683 -316.909 40.234 -319.044 38.098 L -334.54 22.602 C -336.676 20.467 -340.126 20.467 -342.261 22.602 L -366.847 47.188 L -388.147 25.888 C -392.418 21.617 -399.372 21.617 -403.643 25.888 L -414.047 36.291 C -418.318 40.562 -418.318 47.516 -414.047 51.787 L -392.747 73.088 L -417.442 97.783 L -417.442 121 L -394.225 121 L -369.475 96.25 L -348.175 117.55 C -342.973 122.752 -335.964 120.836 -332.679 117.55 L -322.275 107.147 C -318.004 102.876 -318.004 95.921 -322.275 91.65 L -343.575 70.35 L -319.044 45.819 Z M -406.272 44.012 L -395.923 33.608 C -395.923 33.608 -395.923 33.608 -395.923 33.608 L -388.969 40.562 L -395.43 47.078 L -387.709 54.799 L -381.193 48.283 L -374.622 54.854 L -385.026 65.258 L -406.272 44.012 Z M -344.78 84.751 L -351.296 91.267 L -343.575 98.988 L -337.059 92.472 L -330.105 99.426 L -340.509 109.83 L -361.809 88.529 L -351.406 78.125 L -344.78 84.751 Z M -398.77 110.049 L -406.491 110.049 L -406.491 102.328 L -353.87 49.707 L -346.751 56.825 L -346.149 57.427 L -398.77 110.049 Z M -346.149 41.931 L -338.428 34.211 L -330.707 41.931 L -338.428 49.652 L -346.149 41.931 Z" style=""/>
    </g>
  </g>
  <path d="M0 0h24v24H0V0z" fill="none" transform="matrix(1, 0, 0, 1, 262.276031, 240.217453)"/>
  <path d="M 446.19 463 L 281.91 463 C 271.87 463 263.656 465.25 263.656 468 L 263.656 488.001 C 263.656 490.75 271.87 493 281.91 493 L 446.19 493 C 456.229 493 471.852 484.015 471.852 481.266 L 464.444 468 C 464.444 465.25 456.229 463 446.19 463 Z M 446.19 488.001 L 281.91 488.001 L 281.91 468 L 300.163 468 L 300.163 478 L 318.417 478 L 318.417 468 L 336.67 468 L 336.67 478 L 354.924 478 L 354.924 468 L 373.176 468 L 373.176 478 L 391.429 478 L 391.429 468 L 409.683 468 L 409.683 478 L 427.936 478 L 427.936 468 L 446.19 468 L 446.19 488.001 Z" style=""/>
  <path d="M 543.005 366.266 L 379.369 366.266 C 369.369 366.266 361.187 368.516 361.187 371.266 L 361.187 391.267 C 361.187 394.016 369.369 396.266 379.369 396.266 L 543.005 396.266 C 553.005 396.266 561.187 394.016 561.187 391.267 L 561.187 371.266 C 561.187 368.516 553.005 366.266 543.005 366.266 Z M 543.005 391.267 L 379.369 391.267 L 379.369 371.266 L 397.551 371.266 L 397.551 381.266 L 415.733 381.266 L 415.733 371.266 L 433.915 371.266 L 433.915 381.266 L 452.097 381.266 L 452.097 371.266 L 470.277 371.266 L 470.277 381.266 L 488.459 381.266 L 488.459 371.266 L 506.641 371.266 L 506.641 381.266 L 524.823 381.266 L 524.823 371.266 L 543.005 371.266 L 543.005 391.267 Z" transform="matrix(0, -1, 1, 0, 79.921059, 842.453003)"/>
  <g transform="matrix(1, 0, 0, 1, -3, 1)">
    <path d="M 189.674 94.734 L 26.038 94.734 C 16.038 94.734 7.856 96.984 7.856 99.734 L 7.856 119.735 C 7.856 122.484 16.038 124.734 26.038 124.734 L 189.674 124.734 C 199.674 124.734 212.585 114.462 212.585 111.713 L 207.856 99.734 C 207.856 96.984 199.674 94.734 189.674 94.734 Z M 189.674 119.735 L 26.038 119.735 L 26.038 99.734 L 44.22 99.734 L 44.22 109.734 L 62.402 109.734 L 62.402 99.734 L 80.584 99.734 L 80.584 109.734 L 98.766 109.734 L 98.766 99.734 L 116.946 99.734 L 116.946 109.734 L 135.128 109.734 L 135.128 99.734 L 153.31 99.734 L 153.31 109.734 L 171.492 109.734 L 171.492 99.734 L 189.674 99.734 L 189.674 119.735 Z" transform="matrix(-0.798636, 0.601815, -0.601815, -0.798636, 264.286051, 131.039146)"/>
    <path d="M 123.923 252.041 L -39.713 252.041 C -49.713 252.041 -57.895 254.291 -57.895 257.041 L -62.094 278.369 C -62.094 281.118 -49.713 282.041 -39.713 282.041 L 123.923 282.041 C 133.923 282.041 142.105 279.791 142.105 277.042 L 142.105 257.041 C 142.105 254.291 133.923 252.041 123.923 252.041 Z M 123.923 277.042 L -39.713 277.042 L -39.713 257.041 L -21.531 257.041 L -21.531 267.041 L -3.349 267.041 L -3.349 257.041 L 14.833 257.041 L 14.833 267.041 L 33.015 267.041 L 33.015 257.041 L 51.195 257.041 L 51.195 267.041 L 69.377 267.041 L 69.377 257.041 L 87.559 257.041 L 87.559 267.041 L 105.741 267.041 L 105.741 257.041 L 123.923 257.041 L 123.923 277.042 Z" transform="matrix(0, 1, -1, 0, 307.046505, 227.035482)"/>
  </g>
  <rect fill="none" height="24" width="24" transform="matrix(1, 0, 0, 1, 130.511429, 231.188889)"/>
  <path d="M 250.001 38.194 L 113.637 142.286 L 68.182 177.057 L 68.182 234.104 L 68.182 447.284 L 431.818 447.284 L 431.818 234.104 L 434.229 177.069 L 250.001 38.194 Z M 386.363 401.83 L 272.727 401.83 L 227.273 401.83 L 113.637 401.83 L 113.637 199.557 L 250.001 95.466 L 386.363 199.557 L 386.363 401.83 Z" style=""/>
</svg>